<mxfile host="app.diagrams.net" modified="2023-07-30T10:26:17.432Z" agent="Mozilla/5.0 (Windows NT 10.0; Win64; x64; rv:109.0) Gecko/20100101 Firefox/115.0" etag="Xp1TGzUoch101WvtLvCR" version="21.6.6">
  <diagram name="Страница 1" id="Op7uaTS2ZSwpce5F1zdu">
    <mxGraphModel dx="988" dy="544" grid="1" gridSize="10" guides="1" tooltips="1" connect="1" arrows="1" fold="1" page="1" pageScale="1" pageWidth="827" pageHeight="1169" math="0" shadow="0">
      <root>
        <mxCell id="0" />
        <mxCell id="1" parent="0" />
        <mxCell id="4kmjUg7XTupkvUbKVNHZ-32" value="" style="rounded=0;whiteSpace=wrap;html=1;fillColor=#FFFFFF;" parent="1" vertex="1">
          <mxGeometry x="250" y="510" width="10" height="10" as="geometry" />
        </mxCell>
        <mxCell id="4kmjUg7XTupkvUbKVNHZ-34" value="" style="rounded=0;whiteSpace=wrap;html=1;fillColor=#FFFFFF;strokeColor=#000000;" parent="1" vertex="1">
          <mxGeometry x="260" y="510" width="10" height="10" as="geometry" />
        </mxCell>
        <mxCell id="4kmjUg7XTupkvUbKVNHZ-38" value="" style="rounded=0;whiteSpace=wrap;html=1;fillColor=#FFFFFF;" parent="1" vertex="1">
          <mxGeometry x="250" y="530" width="10" height="10" as="geometry" />
        </mxCell>
        <mxCell id="4kmjUg7XTupkvUbKVNHZ-39" value="" style="rounded=0;whiteSpace=wrap;html=1;fillColor=#FFFFFF;" parent="1" vertex="1">
          <mxGeometry x="260" y="520" width="10" height="10" as="geometry" />
        </mxCell>
        <mxCell id="4kmjUg7XTupkvUbKVNHZ-40" value="" style="rounded=0;whiteSpace=wrap;html=1;fillColor=#000000;" parent="1" vertex="1">
          <mxGeometry x="260" y="530" width="10" height="10" as="geometry" />
        </mxCell>
        <mxCell id="4kmjUg7XTupkvUbKVNHZ-41" value="" style="rounded=0;whiteSpace=wrap;html=1;fillColor=#000000;strokeColor=#000000;" parent="1" vertex="1">
          <mxGeometry x="250" y="520" width="10" height="10" as="geometry" />
        </mxCell>
        <mxCell id="4kmjUg7XTupkvUbKVNHZ-46" value="" style="rounded=0;whiteSpace=wrap;html=1;fillColor=#000000;" parent="1" vertex="1">
          <mxGeometry x="270" y="510" width="10" height="10" as="geometry" />
        </mxCell>
        <mxCell id="4kmjUg7XTupkvUbKVNHZ-47" value="" style="rounded=0;whiteSpace=wrap;html=1;fillColor=#FFFFFF;" parent="1" vertex="1">
          <mxGeometry x="270" y="520" width="10" height="10" as="geometry" />
        </mxCell>
        <mxCell id="4kmjUg7XTupkvUbKVNHZ-50" value="" style="rounded=0;whiteSpace=wrap;html=1;fillColor=#FFFFFF;" parent="1" vertex="1">
          <mxGeometry x="270" y="530" width="10" height="10" as="geometry" />
        </mxCell>
        <mxCell id="4kmjUg7XTupkvUbKVNHZ-74" value="&lt;div style=&quot;font-size: 8px;&quot;&gt;?&lt;/div&gt;" style="rounded=0;whiteSpace=wrap;html=1;fillColor=#FFFFFF;" parent="1" vertex="1">
          <mxGeometry x="330" y="510" width="10" height="10" as="geometry" />
        </mxCell>
        <mxCell id="4kmjUg7XTupkvUbKVNHZ-77" value="" style="rounded=0;whiteSpace=wrap;html=1;fillColor=#000000;" parent="1" vertex="1">
          <mxGeometry x="340" y="520" width="10" height="10" as="geometry" />
        </mxCell>
        <mxCell id="4kmjUg7XTupkvUbKVNHZ-83" value="" style="html=1;shadow=0;dashed=0;align=center;verticalAlign=middle;shape=mxgraph.arrows2.arrow;dy=0.6;dx=9.28;notch=0;" parent="1" vertex="1">
          <mxGeometry x="290" y="515" width="35" height="20" as="geometry" />
        </mxCell>
        <mxCell id="4kmjUg7XTupkvUbKVNHZ-84" value="&lt;div style=&quot;font-size: 8px;&quot;&gt;?&lt;/div&gt;" style="rounded=0;whiteSpace=wrap;html=1;fillColor=#FFFFFF;" parent="1" vertex="1">
          <mxGeometry x="350" y="510" width="10" height="10" as="geometry" />
        </mxCell>
        <mxCell id="4kmjUg7XTupkvUbKVNHZ-85" value="&lt;div style=&quot;font-size: 8px;&quot;&gt;?&lt;/div&gt;" style="rounded=0;whiteSpace=wrap;html=1;fillColor=#FFFFFF;" parent="1" vertex="1">
          <mxGeometry x="340" y="510" width="10" height="10" as="geometry" />
        </mxCell>
        <mxCell id="4kmjUg7XTupkvUbKVNHZ-86" value="&lt;div style=&quot;font-size: 8px;&quot;&gt;?&lt;/div&gt;" style="rounded=0;whiteSpace=wrap;html=1;fillColor=#FFFFFF;" parent="1" vertex="1">
          <mxGeometry x="330" y="530" width="10" height="10" as="geometry" />
        </mxCell>
        <mxCell id="4kmjUg7XTupkvUbKVNHZ-87" value="&lt;div style=&quot;font-size: 8px;&quot;&gt;?&lt;/div&gt;" style="rounded=0;whiteSpace=wrap;html=1;fillColor=#FFFFFF;" parent="1" vertex="1">
          <mxGeometry x="350" y="530" width="10" height="10" as="geometry" />
        </mxCell>
        <mxCell id="4kmjUg7XTupkvUbKVNHZ-88" value="&lt;div style=&quot;font-size: 8px;&quot;&gt;?&lt;/div&gt;" style="rounded=0;whiteSpace=wrap;html=1;fillColor=#FFFFFF;" parent="1" vertex="1">
          <mxGeometry x="340" y="530" width="10" height="10" as="geometry" />
        </mxCell>
        <mxCell id="4kmjUg7XTupkvUbKVNHZ-89" value="&lt;div style=&quot;font-size: 8px;&quot;&gt;?&lt;/div&gt;" style="rounded=0;whiteSpace=wrap;html=1;fillColor=#FFFFFF;" parent="1" vertex="1">
          <mxGeometry x="350" y="520" width="10" height="10" as="geometry" />
        </mxCell>
        <mxCell id="4kmjUg7XTupkvUbKVNHZ-90" value="&lt;div style=&quot;font-size: 8px;&quot;&gt;?&lt;/div&gt;" style="rounded=0;whiteSpace=wrap;html=1;fillColor=#FFFFFF;" parent="1" vertex="1">
          <mxGeometry x="330" y="520" width="10" height="10" as="geometry" />
        </mxCell>
        <mxCell id="4kmjUg7XTupkvUbKVNHZ-91" value="" style="rounded=0;whiteSpace=wrap;html=1;fillColor=#FFFFFF;" parent="1" vertex="1">
          <mxGeometry x="250" y="555" width="10" height="10" as="geometry" />
        </mxCell>
        <mxCell id="4kmjUg7XTupkvUbKVNHZ-92" value="" style="rounded=0;whiteSpace=wrap;html=1;fillColor=#FFFFFF;strokeColor=#000000;" parent="1" vertex="1">
          <mxGeometry x="260" y="555" width="10" height="10" as="geometry" />
        </mxCell>
        <mxCell id="4kmjUg7XTupkvUbKVNHZ-93" value="" style="rounded=0;whiteSpace=wrap;html=1;fillColor=#FFFFFF;" parent="1" vertex="1">
          <mxGeometry x="250" y="575" width="10" height="10" as="geometry" />
        </mxCell>
        <mxCell id="4kmjUg7XTupkvUbKVNHZ-94" value="" style="rounded=0;whiteSpace=wrap;html=1;fillColor=#000000;" parent="1" vertex="1">
          <mxGeometry x="260" y="565" width="10" height="10" as="geometry" />
        </mxCell>
        <mxCell id="4kmjUg7XTupkvUbKVNHZ-95" value="" style="rounded=0;whiteSpace=wrap;html=1;fillColor=#FFFFFF;" parent="1" vertex="1">
          <mxGeometry x="260" y="575" width="10" height="10" as="geometry" />
        </mxCell>
        <mxCell id="4kmjUg7XTupkvUbKVNHZ-96" value="" style="rounded=0;whiteSpace=wrap;html=1;fillColor=#000000;strokeColor=#000000;" parent="1" vertex="1">
          <mxGeometry x="250" y="565" width="10" height="10" as="geometry" />
        </mxCell>
        <mxCell id="4kmjUg7XTupkvUbKVNHZ-97" value="" style="rounded=0;whiteSpace=wrap;html=1;fillColor=#000000;" parent="1" vertex="1">
          <mxGeometry x="270" y="555" width="10" height="10" as="geometry" />
        </mxCell>
        <mxCell id="4kmjUg7XTupkvUbKVNHZ-98" value="" style="rounded=0;whiteSpace=wrap;html=1;fillColor=#FFFFFF;" parent="1" vertex="1">
          <mxGeometry x="270" y="565" width="10" height="10" as="geometry" />
        </mxCell>
        <mxCell id="4kmjUg7XTupkvUbKVNHZ-99" value="" style="rounded=0;whiteSpace=wrap;html=1;fillColor=#FFFFFF;" parent="1" vertex="1">
          <mxGeometry x="270" y="575" width="10" height="10" as="geometry" />
        </mxCell>
        <mxCell id="4kmjUg7XTupkvUbKVNHZ-100" value="&lt;div style=&quot;font-size: 8px;&quot;&gt;?&lt;/div&gt;" style="rounded=0;whiteSpace=wrap;html=1;fillColor=#FFFFFF;" parent="1" vertex="1">
          <mxGeometry x="330" y="555" width="10" height="10" as="geometry" />
        </mxCell>
        <mxCell id="4kmjUg7XTupkvUbKVNHZ-101" value="" style="rounded=0;whiteSpace=wrap;html=1;fillColor=#000000;" parent="1" vertex="1">
          <mxGeometry x="340" y="565" width="10" height="10" as="geometry" />
        </mxCell>
        <mxCell id="4kmjUg7XTupkvUbKVNHZ-102" value="" style="html=1;shadow=0;dashed=0;align=center;verticalAlign=middle;shape=mxgraph.arrows2.arrow;dy=0.6;dx=9.28;notch=0;" parent="1" vertex="1">
          <mxGeometry x="290" y="560" width="35" height="20" as="geometry" />
        </mxCell>
        <mxCell id="4kmjUg7XTupkvUbKVNHZ-103" value="&lt;div style=&quot;font-size: 8px;&quot;&gt;?&lt;/div&gt;" style="rounded=0;whiteSpace=wrap;html=1;fillColor=#FFFFFF;" parent="1" vertex="1">
          <mxGeometry x="350" y="555" width="10" height="10" as="geometry" />
        </mxCell>
        <mxCell id="4kmjUg7XTupkvUbKVNHZ-104" value="&lt;div style=&quot;font-size: 8px;&quot;&gt;?&lt;/div&gt;" style="rounded=0;whiteSpace=wrap;html=1;fillColor=#FFFFFF;" parent="1" vertex="1">
          <mxGeometry x="340" y="555" width="10" height="10" as="geometry" />
        </mxCell>
        <mxCell id="4kmjUg7XTupkvUbKVNHZ-105" value="&lt;div style=&quot;font-size: 8px;&quot;&gt;?&lt;/div&gt;" style="rounded=0;whiteSpace=wrap;html=1;fillColor=#FFFFFF;" parent="1" vertex="1">
          <mxGeometry x="330" y="575" width="10" height="10" as="geometry" />
        </mxCell>
        <mxCell id="4kmjUg7XTupkvUbKVNHZ-106" value="&lt;div style=&quot;font-size: 8px;&quot;&gt;?&lt;/div&gt;" style="rounded=0;whiteSpace=wrap;html=1;fillColor=#FFFFFF;" parent="1" vertex="1">
          <mxGeometry x="350" y="575" width="10" height="10" as="geometry" />
        </mxCell>
        <mxCell id="4kmjUg7XTupkvUbKVNHZ-107" value="&lt;div style=&quot;font-size: 8px;&quot;&gt;?&lt;/div&gt;" style="rounded=0;whiteSpace=wrap;html=1;fillColor=#FFFFFF;" parent="1" vertex="1">
          <mxGeometry x="340" y="575" width="10" height="10" as="geometry" />
        </mxCell>
        <mxCell id="4kmjUg7XTupkvUbKVNHZ-108" value="&lt;div style=&quot;font-size: 8px;&quot;&gt;?&lt;/div&gt;" style="rounded=0;whiteSpace=wrap;html=1;fillColor=#FFFFFF;" parent="1" vertex="1">
          <mxGeometry x="350" y="565" width="10" height="10" as="geometry" />
        </mxCell>
        <mxCell id="4kmjUg7XTupkvUbKVNHZ-109" value="&lt;div style=&quot;font-size: 8px;&quot;&gt;?&lt;/div&gt;" style="rounded=0;whiteSpace=wrap;html=1;fillColor=#FFFFFF;" parent="1" vertex="1">
          <mxGeometry x="330" y="565" width="10" height="10" as="geometry" />
        </mxCell>
        <mxCell id="4kmjUg7XTupkvUbKVNHZ-110" value="B3" style="text;html=1;align=center;verticalAlign=middle;resizable=0;points=[];autosize=1;strokeColor=none;fillColor=none;" parent="1" vertex="1">
          <mxGeometry x="210" y="510" width="40" height="30" as="geometry" />
        </mxCell>
        <mxCell id="4kmjUg7XTupkvUbKVNHZ-111" value="&lt;div&gt;S2&lt;/div&gt;" style="text;html=1;align=center;verticalAlign=middle;resizable=0;points=[];autosize=1;strokeColor=none;fillColor=none;" parent="1" vertex="1">
          <mxGeometry x="210" y="555" width="40" height="30" as="geometry" />
        </mxCell>
        <mxCell id="4kmjUg7XTupkvUbKVNHZ-112" value="" style="rounded=0;whiteSpace=wrap;html=1;fillColor=#000000;" parent="1" vertex="1">
          <mxGeometry x="250" y="600" width="10" height="10" as="geometry" />
        </mxCell>
        <mxCell id="4kmjUg7XTupkvUbKVNHZ-113" value="" style="rounded=0;whiteSpace=wrap;html=1;fillColor=#FFFFFF;strokeColor=#000000;" parent="1" vertex="1">
          <mxGeometry x="260" y="600" width="10" height="10" as="geometry" />
        </mxCell>
        <mxCell id="4kmjUg7XTupkvUbKVNHZ-114" value="" style="rounded=0;whiteSpace=wrap;html=1;fillColor=#FFFFFF;" parent="1" vertex="1">
          <mxGeometry x="250" y="620" width="10" height="10" as="geometry" />
        </mxCell>
        <mxCell id="4kmjUg7XTupkvUbKVNHZ-115" value="" style="rounded=0;whiteSpace=wrap;html=1;fillColor=#000000;" parent="1" vertex="1">
          <mxGeometry x="260" y="610" width="10" height="10" as="geometry" />
        </mxCell>
        <mxCell id="4kmjUg7XTupkvUbKVNHZ-116" value="" style="rounded=0;whiteSpace=wrap;html=1;fillColor=#FFFFFF;" parent="1" vertex="1">
          <mxGeometry x="260" y="620" width="10" height="10" as="geometry" />
        </mxCell>
        <mxCell id="4kmjUg7XTupkvUbKVNHZ-117" value="" style="rounded=0;whiteSpace=wrap;html=1;fillColor=#FFFFFF;strokeColor=#000000;" parent="1" vertex="1">
          <mxGeometry x="250" y="610" width="10" height="10" as="geometry" />
        </mxCell>
        <mxCell id="4kmjUg7XTupkvUbKVNHZ-118" value="" style="rounded=0;whiteSpace=wrap;html=1;fillColor=#000000;" parent="1" vertex="1">
          <mxGeometry x="270" y="600" width="10" height="10" as="geometry" />
        </mxCell>
        <mxCell id="4kmjUg7XTupkvUbKVNHZ-119" value="" style="rounded=0;whiteSpace=wrap;html=1;fillColor=#FFFFFF;" parent="1" vertex="1">
          <mxGeometry x="270" y="610" width="10" height="10" as="geometry" />
        </mxCell>
        <mxCell id="4kmjUg7XTupkvUbKVNHZ-120" value="" style="rounded=0;whiteSpace=wrap;html=1;fillColor=#000000;" parent="1" vertex="1">
          <mxGeometry x="270" y="620" width="10" height="10" as="geometry" />
        </mxCell>
        <mxCell id="4kmjUg7XTupkvUbKVNHZ-121" value="&lt;div style=&quot;font-size: 8px;&quot;&gt;?&lt;/div&gt;" style="rounded=0;whiteSpace=wrap;html=1;fillColor=#FFFFFF;" parent="1" vertex="1">
          <mxGeometry x="330" y="600" width="10" height="10" as="geometry" />
        </mxCell>
        <mxCell id="4kmjUg7XTupkvUbKVNHZ-122" value="" style="rounded=0;whiteSpace=wrap;html=1;fillColor=#000000;" parent="1" vertex="1">
          <mxGeometry x="340" y="610" width="10" height="10" as="geometry" />
        </mxCell>
        <mxCell id="4kmjUg7XTupkvUbKVNHZ-123" value="" style="html=1;shadow=0;dashed=0;align=center;verticalAlign=middle;shape=mxgraph.arrows2.arrow;dy=0.6;dx=9.28;notch=0;" parent="1" vertex="1">
          <mxGeometry x="290" y="605" width="35" height="20" as="geometry" />
        </mxCell>
        <mxCell id="4kmjUg7XTupkvUbKVNHZ-124" value="&lt;div style=&quot;font-size: 8px;&quot;&gt;?&lt;/div&gt;" style="rounded=0;whiteSpace=wrap;html=1;fillColor=#FFFFFF;" parent="1" vertex="1">
          <mxGeometry x="350" y="600" width="10" height="10" as="geometry" />
        </mxCell>
        <mxCell id="4kmjUg7XTupkvUbKVNHZ-125" value="&lt;div style=&quot;font-size: 8px;&quot;&gt;?&lt;/div&gt;" style="rounded=0;whiteSpace=wrap;html=1;fillColor=#FFFFFF;" parent="1" vertex="1">
          <mxGeometry x="340" y="600" width="10" height="10" as="geometry" />
        </mxCell>
        <mxCell id="4kmjUg7XTupkvUbKVNHZ-126" value="&lt;div style=&quot;font-size: 8px;&quot;&gt;?&lt;/div&gt;" style="rounded=0;whiteSpace=wrap;html=1;fillColor=#FFFFFF;" parent="1" vertex="1">
          <mxGeometry x="330" y="620" width="10" height="10" as="geometry" />
        </mxCell>
        <mxCell id="4kmjUg7XTupkvUbKVNHZ-127" value="&lt;div style=&quot;font-size: 8px;&quot;&gt;?&lt;/div&gt;" style="rounded=0;whiteSpace=wrap;html=1;fillColor=#FFFFFF;" parent="1" vertex="1">
          <mxGeometry x="350" y="620" width="10" height="10" as="geometry" />
        </mxCell>
        <mxCell id="4kmjUg7XTupkvUbKVNHZ-128" value="&lt;div style=&quot;font-size: 8px;&quot;&gt;?&lt;/div&gt;" style="rounded=0;whiteSpace=wrap;html=1;fillColor=#FFFFFF;" parent="1" vertex="1">
          <mxGeometry x="340" y="620" width="10" height="10" as="geometry" />
        </mxCell>
        <mxCell id="4kmjUg7XTupkvUbKVNHZ-129" value="&lt;div style=&quot;font-size: 8px;&quot;&gt;?&lt;/div&gt;" style="rounded=0;whiteSpace=wrap;html=1;fillColor=#FFFFFF;" parent="1" vertex="1">
          <mxGeometry x="350" y="610" width="10" height="10" as="geometry" />
        </mxCell>
        <mxCell id="4kmjUg7XTupkvUbKVNHZ-130" value="&lt;div style=&quot;font-size: 8px;&quot;&gt;?&lt;/div&gt;" style="rounded=0;whiteSpace=wrap;html=1;fillColor=#FFFFFF;" parent="1" vertex="1">
          <mxGeometry x="330" y="610" width="10" height="10" as="geometry" />
        </mxCell>
        <mxCell id="4kmjUg7XTupkvUbKVNHZ-131" value="&lt;div&gt;S3&lt;/div&gt;" style="text;html=1;align=center;verticalAlign=middle;resizable=0;points=[];autosize=1;strokeColor=none;fillColor=none;" parent="1" vertex="1">
          <mxGeometry x="210" y="600" width="40" height="30" as="geometry" />
        </mxCell>
        <mxCell id="4kmjUg7XTupkvUbKVNHZ-132" value="" style="rounded=0;whiteSpace=wrap;html=1;fillColor=#FFFFFF;" parent="1" vertex="1">
          <mxGeometry x="400" y="510" width="10" height="10" as="geometry" />
        </mxCell>
        <mxCell id="4kmjUg7XTupkvUbKVNHZ-133" value="" style="rounded=0;whiteSpace=wrap;html=1;fillColor=#FFFFFF;strokeColor=#000000;" parent="1" vertex="1">
          <mxGeometry x="410" y="510" width="10" height="10" as="geometry" />
        </mxCell>
        <mxCell id="4kmjUg7XTupkvUbKVNHZ-134" value="" style="rounded=0;whiteSpace=wrap;html=1;fillColor=#FFFFFF;" parent="1" vertex="1">
          <mxGeometry x="400" y="530" width="10" height="10" as="geometry" />
        </mxCell>
        <mxCell id="4kmjUg7XTupkvUbKVNHZ-135" value="" style="rounded=0;whiteSpace=wrap;html=1;fillColor=#FFFFFF;" parent="1" vertex="1">
          <mxGeometry x="410" y="520" width="10" height="10" as="geometry" />
        </mxCell>
        <mxCell id="4kmjUg7XTupkvUbKVNHZ-136" value="" style="rounded=0;whiteSpace=wrap;html=1;fillColor=#FFFFFF;" parent="1" vertex="1">
          <mxGeometry x="410" y="530" width="10" height="10" as="geometry" />
        </mxCell>
        <mxCell id="4kmjUg7XTupkvUbKVNHZ-137" value="" style="rounded=0;whiteSpace=wrap;html=1;fillColor=#000000;strokeColor=#000000;" parent="1" vertex="1">
          <mxGeometry x="400" y="520" width="10" height="10" as="geometry" />
        </mxCell>
        <mxCell id="4kmjUg7XTupkvUbKVNHZ-138" value="" style="rounded=0;whiteSpace=wrap;html=1;fillColor=#000000;" parent="1" vertex="1">
          <mxGeometry x="420" y="510" width="10" height="10" as="geometry" />
        </mxCell>
        <mxCell id="4kmjUg7XTupkvUbKVNHZ-139" value="" style="rounded=0;whiteSpace=wrap;html=1;fillColor=#FFFFFF;" parent="1" vertex="1">
          <mxGeometry x="420" y="520" width="10" height="10" as="geometry" />
        </mxCell>
        <mxCell id="4kmjUg7XTupkvUbKVNHZ-140" value="" style="rounded=0;whiteSpace=wrap;html=1;fillColor=#FFFFFF;" parent="1" vertex="1">
          <mxGeometry x="420" y="530" width="10" height="10" as="geometry" />
        </mxCell>
        <mxCell id="4kmjUg7XTupkvUbKVNHZ-141" value="&lt;div style=&quot;font-size: 8px;&quot;&gt;?&lt;/div&gt;" style="rounded=0;whiteSpace=wrap;html=1;fillColor=#FFFFFF;" parent="1" vertex="1">
          <mxGeometry x="480" y="510" width="10" height="10" as="geometry" />
        </mxCell>
        <mxCell id="4kmjUg7XTupkvUbKVNHZ-142" value="" style="rounded=0;whiteSpace=wrap;html=1;fillColor=#FFFFFF;" parent="1" vertex="1">
          <mxGeometry x="490" y="520" width="10" height="10" as="geometry" />
        </mxCell>
        <mxCell id="4kmjUg7XTupkvUbKVNHZ-143" value="" style="html=1;shadow=0;dashed=0;align=center;verticalAlign=middle;shape=mxgraph.arrows2.arrow;dy=0.6;dx=9.28;notch=0;" parent="1" vertex="1">
          <mxGeometry x="440" y="515" width="35" height="20" as="geometry" />
        </mxCell>
        <mxCell id="4kmjUg7XTupkvUbKVNHZ-144" value="&lt;div style=&quot;font-size: 8px;&quot;&gt;?&lt;/div&gt;" style="rounded=0;whiteSpace=wrap;html=1;fillColor=#FFFFFF;" parent="1" vertex="1">
          <mxGeometry x="500" y="510" width="10" height="10" as="geometry" />
        </mxCell>
        <mxCell id="4kmjUg7XTupkvUbKVNHZ-145" value="&lt;div style=&quot;font-size: 8px;&quot;&gt;?&lt;/div&gt;" style="rounded=0;whiteSpace=wrap;html=1;fillColor=#FFFFFF;" parent="1" vertex="1">
          <mxGeometry x="490" y="510" width="10" height="10" as="geometry" />
        </mxCell>
        <mxCell id="4kmjUg7XTupkvUbKVNHZ-146" value="&lt;div style=&quot;font-size: 8px;&quot;&gt;?&lt;/div&gt;" style="rounded=0;whiteSpace=wrap;html=1;fillColor=#FFFFFF;" parent="1" vertex="1">
          <mxGeometry x="480" y="530" width="10" height="10" as="geometry" />
        </mxCell>
        <mxCell id="4kmjUg7XTupkvUbKVNHZ-147" value="&lt;div style=&quot;font-size: 8px;&quot;&gt;?&lt;/div&gt;" style="rounded=0;whiteSpace=wrap;html=1;fillColor=#FFFFFF;" parent="1" vertex="1">
          <mxGeometry x="500" y="530" width="10" height="10" as="geometry" />
        </mxCell>
        <mxCell id="4kmjUg7XTupkvUbKVNHZ-148" value="&lt;div style=&quot;font-size: 8px;&quot;&gt;?&lt;/div&gt;" style="rounded=0;whiteSpace=wrap;html=1;fillColor=#FFFFFF;" parent="1" vertex="1">
          <mxGeometry x="490" y="530" width="10" height="10" as="geometry" />
        </mxCell>
        <mxCell id="4kmjUg7XTupkvUbKVNHZ-149" value="&lt;div style=&quot;font-size: 8px;&quot;&gt;?&lt;/div&gt;" style="rounded=0;whiteSpace=wrap;html=1;fillColor=#FFFFFF;" parent="1" vertex="1">
          <mxGeometry x="500" y="520" width="10" height="10" as="geometry" />
        </mxCell>
        <mxCell id="4kmjUg7XTupkvUbKVNHZ-150" value="&lt;div style=&quot;font-size: 8px;&quot;&gt;?&lt;/div&gt;" style="rounded=0;whiteSpace=wrap;html=1;fillColor=#FFFFFF;" parent="1" vertex="1">
          <mxGeometry x="480" y="520" width="10" height="10" as="geometry" />
        </mxCell>
        <mxCell id="4kmjUg7XTupkvUbKVNHZ-151" value="" style="rounded=0;whiteSpace=wrap;html=1;fillColor=#FFFFFF;" parent="1" vertex="1">
          <mxGeometry x="400" y="555" width="10" height="10" as="geometry" />
        </mxCell>
        <mxCell id="4kmjUg7XTupkvUbKVNHZ-152" value="" style="rounded=0;whiteSpace=wrap;html=1;fillColor=#FFFFFF;strokeColor=#000000;" parent="1" vertex="1">
          <mxGeometry x="410" y="555" width="10" height="10" as="geometry" />
        </mxCell>
        <mxCell id="4kmjUg7XTupkvUbKVNHZ-153" value="" style="rounded=0;whiteSpace=wrap;html=1;fillColor=#FFFFFF;" parent="1" vertex="1">
          <mxGeometry x="400" y="575" width="10" height="10" as="geometry" />
        </mxCell>
        <mxCell id="4kmjUg7XTupkvUbKVNHZ-154" value="" style="rounded=0;whiteSpace=wrap;html=1;fillColor=#000000;" parent="1" vertex="1">
          <mxGeometry x="410" y="565" width="10" height="10" as="geometry" />
        </mxCell>
        <mxCell id="4kmjUg7XTupkvUbKVNHZ-155" value="" style="rounded=0;whiteSpace=wrap;html=1;fillColor=#FFFFFF;" parent="1" vertex="1">
          <mxGeometry x="410" y="575" width="10" height="10" as="geometry" />
        </mxCell>
        <mxCell id="4kmjUg7XTupkvUbKVNHZ-156" value="" style="rounded=0;whiteSpace=wrap;html=1;fillColor=#FFFFFF;strokeColor=#000000;" parent="1" vertex="1">
          <mxGeometry x="400" y="565" width="10" height="10" as="geometry" />
        </mxCell>
        <mxCell id="4kmjUg7XTupkvUbKVNHZ-157" value="" style="rounded=0;whiteSpace=wrap;html=1;fillColor=#000000;" parent="1" vertex="1">
          <mxGeometry x="420" y="555" width="10" height="10" as="geometry" />
        </mxCell>
        <mxCell id="4kmjUg7XTupkvUbKVNHZ-158" value="" style="rounded=0;whiteSpace=wrap;html=1;fillColor=#FFFFFF;" parent="1" vertex="1">
          <mxGeometry x="420" y="565" width="10" height="10" as="geometry" />
        </mxCell>
        <mxCell id="4kmjUg7XTupkvUbKVNHZ-159" value="" style="rounded=0;whiteSpace=wrap;html=1;fillColor=#FFFFFF;" parent="1" vertex="1">
          <mxGeometry x="420" y="575" width="10" height="10" as="geometry" />
        </mxCell>
        <mxCell id="4kmjUg7XTupkvUbKVNHZ-160" value="&lt;div style=&quot;font-size: 8px;&quot;&gt;?&lt;/div&gt;" style="rounded=0;whiteSpace=wrap;html=1;fillColor=#FFFFFF;" parent="1" vertex="1">
          <mxGeometry x="480" y="555" width="10" height="10" as="geometry" />
        </mxCell>
        <mxCell id="4kmjUg7XTupkvUbKVNHZ-161" value="" style="rounded=0;whiteSpace=wrap;html=1;fillColor=#FFFFFF;strokeColor=#000000;" parent="1" vertex="1">
          <mxGeometry x="490" y="565" width="10" height="10" as="geometry" />
        </mxCell>
        <mxCell id="4kmjUg7XTupkvUbKVNHZ-162" value="" style="html=1;shadow=0;dashed=0;align=center;verticalAlign=middle;shape=mxgraph.arrows2.arrow;dy=0.6;dx=9.28;notch=0;" parent="1" vertex="1">
          <mxGeometry x="440" y="560" width="35" height="20" as="geometry" />
        </mxCell>
        <mxCell id="4kmjUg7XTupkvUbKVNHZ-163" value="&lt;div style=&quot;font-size: 8px;&quot;&gt;?&lt;/div&gt;" style="rounded=0;whiteSpace=wrap;html=1;fillColor=#FFFFFF;" parent="1" vertex="1">
          <mxGeometry x="500" y="555" width="10" height="10" as="geometry" />
        </mxCell>
        <mxCell id="4kmjUg7XTupkvUbKVNHZ-164" value="&lt;div style=&quot;font-size: 8px;&quot;&gt;?&lt;/div&gt;" style="rounded=0;whiteSpace=wrap;html=1;fillColor=#FFFFFF;" parent="1" vertex="1">
          <mxGeometry x="490" y="555" width="10" height="10" as="geometry" />
        </mxCell>
        <mxCell id="4kmjUg7XTupkvUbKVNHZ-165" value="&lt;div style=&quot;font-size: 8px;&quot;&gt;?&lt;/div&gt;" style="rounded=0;whiteSpace=wrap;html=1;fillColor=#FFFFFF;" parent="1" vertex="1">
          <mxGeometry x="480" y="575" width="10" height="10" as="geometry" />
        </mxCell>
        <mxCell id="4kmjUg7XTupkvUbKVNHZ-166" value="&lt;div style=&quot;font-size: 8px;&quot;&gt;?&lt;/div&gt;" style="rounded=0;whiteSpace=wrap;html=1;fillColor=#FFFFFF;" parent="1" vertex="1">
          <mxGeometry x="500" y="575" width="10" height="10" as="geometry" />
        </mxCell>
        <mxCell id="4kmjUg7XTupkvUbKVNHZ-167" value="&lt;div style=&quot;font-size: 8px;&quot;&gt;?&lt;/div&gt;" style="rounded=0;whiteSpace=wrap;html=1;fillColor=#FFFFFF;" parent="1" vertex="1">
          <mxGeometry x="490" y="575" width="10" height="10" as="geometry" />
        </mxCell>
        <mxCell id="4kmjUg7XTupkvUbKVNHZ-168" value="&lt;div style=&quot;font-size: 8px;&quot;&gt;?&lt;/div&gt;" style="rounded=0;whiteSpace=wrap;html=1;fillColor=#FFFFFF;" parent="1" vertex="1">
          <mxGeometry x="500" y="565" width="10" height="10" as="geometry" />
        </mxCell>
        <mxCell id="4kmjUg7XTupkvUbKVNHZ-169" value="&lt;div style=&quot;font-size: 8px;&quot;&gt;?&lt;/div&gt;" style="rounded=0;whiteSpace=wrap;html=1;fillColor=#FFFFFF;" parent="1" vertex="1">
          <mxGeometry x="480" y="565" width="10" height="10" as="geometry" />
        </mxCell>
        <mxCell id="4kmjUg7XTupkvUbKVNHZ-170" value="" style="rounded=0;whiteSpace=wrap;html=1;fillColor=#000000;" parent="1" vertex="1">
          <mxGeometry x="400" y="600" width="10" height="10" as="geometry" />
        </mxCell>
        <mxCell id="4kmjUg7XTupkvUbKVNHZ-171" value="" style="rounded=0;whiteSpace=wrap;html=1;fillColor=#FFFFFF;strokeColor=#000000;" parent="1" vertex="1">
          <mxGeometry x="410" y="600" width="10" height="10" as="geometry" />
        </mxCell>
        <mxCell id="4kmjUg7XTupkvUbKVNHZ-172" value="" style="rounded=0;whiteSpace=wrap;html=1;fillColor=#FFFFFF;" parent="1" vertex="1">
          <mxGeometry x="400" y="620" width="10" height="10" as="geometry" />
        </mxCell>
        <mxCell id="4kmjUg7XTupkvUbKVNHZ-173" value="" style="rounded=0;whiteSpace=wrap;html=1;fillColor=#000000;" parent="1" vertex="1">
          <mxGeometry x="410" y="610" width="10" height="10" as="geometry" />
        </mxCell>
        <mxCell id="4kmjUg7XTupkvUbKVNHZ-174" value="" style="rounded=0;whiteSpace=wrap;html=1;fillColor=#000000;" parent="1" vertex="1">
          <mxGeometry x="410" y="620" width="10" height="10" as="geometry" />
        </mxCell>
        <mxCell id="4kmjUg7XTupkvUbKVNHZ-175" value="" style="rounded=0;whiteSpace=wrap;html=1;fillColor=#FFFFFF;strokeColor=#000000;" parent="1" vertex="1">
          <mxGeometry x="400" y="610" width="10" height="10" as="geometry" />
        </mxCell>
        <mxCell id="4kmjUg7XTupkvUbKVNHZ-176" value="" style="rounded=0;whiteSpace=wrap;html=1;fillColor=#000000;" parent="1" vertex="1">
          <mxGeometry x="420" y="600" width="10" height="10" as="geometry" />
        </mxCell>
        <mxCell id="4kmjUg7XTupkvUbKVNHZ-177" value="" style="rounded=0;whiteSpace=wrap;html=1;fillColor=#FFFFFF;" parent="1" vertex="1">
          <mxGeometry x="420" y="610" width="10" height="10" as="geometry" />
        </mxCell>
        <mxCell id="4kmjUg7XTupkvUbKVNHZ-178" value="" style="rounded=0;whiteSpace=wrap;html=1;fillColor=#000000;" parent="1" vertex="1">
          <mxGeometry x="420" y="620" width="10" height="10" as="geometry" />
        </mxCell>
        <mxCell id="4kmjUg7XTupkvUbKVNHZ-179" value="&lt;div style=&quot;font-size: 8px;&quot;&gt;?&lt;/div&gt;" style="rounded=0;whiteSpace=wrap;html=1;fillColor=#FFFFFF;" parent="1" vertex="1">
          <mxGeometry x="480" y="600" width="10" height="10" as="geometry" />
        </mxCell>
        <mxCell id="4kmjUg7XTupkvUbKVNHZ-180" value="" style="rounded=0;whiteSpace=wrap;html=1;fillColor=#FFFFFF;" parent="1" vertex="1">
          <mxGeometry x="490" y="610" width="10" height="10" as="geometry" />
        </mxCell>
        <mxCell id="4kmjUg7XTupkvUbKVNHZ-181" value="" style="html=1;shadow=0;dashed=0;align=center;verticalAlign=middle;shape=mxgraph.arrows2.arrow;dy=0.6;dx=9.28;notch=0;" parent="1" vertex="1">
          <mxGeometry x="440" y="605" width="35" height="20" as="geometry" />
        </mxCell>
        <mxCell id="4kmjUg7XTupkvUbKVNHZ-182" value="&lt;div style=&quot;font-size: 8px;&quot;&gt;?&lt;/div&gt;" style="rounded=0;whiteSpace=wrap;html=1;fillColor=#FFFFFF;" parent="1" vertex="1">
          <mxGeometry x="500" y="600" width="10" height="10" as="geometry" />
        </mxCell>
        <mxCell id="4kmjUg7XTupkvUbKVNHZ-183" value="&lt;div style=&quot;font-size: 8px;&quot;&gt;?&lt;/div&gt;" style="rounded=0;whiteSpace=wrap;html=1;fillColor=#FFFFFF;" parent="1" vertex="1">
          <mxGeometry x="490" y="600" width="10" height="10" as="geometry" />
        </mxCell>
        <mxCell id="4kmjUg7XTupkvUbKVNHZ-184" value="&lt;div style=&quot;font-size: 8px;&quot;&gt;?&lt;/div&gt;" style="rounded=0;whiteSpace=wrap;html=1;fillColor=#FFFFFF;" parent="1" vertex="1">
          <mxGeometry x="480" y="620" width="10" height="10" as="geometry" />
        </mxCell>
        <mxCell id="4kmjUg7XTupkvUbKVNHZ-185" value="&lt;div style=&quot;font-size: 8px;&quot;&gt;?&lt;/div&gt;" style="rounded=0;whiteSpace=wrap;html=1;fillColor=#FFFFFF;" parent="1" vertex="1">
          <mxGeometry x="500" y="620" width="10" height="10" as="geometry" />
        </mxCell>
        <mxCell id="4kmjUg7XTupkvUbKVNHZ-186" value="&lt;div style=&quot;font-size: 8px;&quot;&gt;?&lt;/div&gt;" style="rounded=0;whiteSpace=wrap;html=1;fillColor=#FFFFFF;" parent="1" vertex="1">
          <mxGeometry x="490" y="620" width="10" height="10" as="geometry" />
        </mxCell>
        <mxCell id="4kmjUg7XTupkvUbKVNHZ-187" value="&lt;div style=&quot;font-size: 8px;&quot;&gt;?&lt;/div&gt;" style="rounded=0;whiteSpace=wrap;html=1;fillColor=#FFFFFF;" parent="1" vertex="1">
          <mxGeometry x="500" y="610" width="10" height="10" as="geometry" />
        </mxCell>
        <mxCell id="4kmjUg7XTupkvUbKVNHZ-188" value="&lt;div style=&quot;font-size: 8px;&quot;&gt;?&lt;/div&gt;" style="rounded=0;whiteSpace=wrap;html=1;fillColor=#FFFFFF;" parent="1" vertex="1">
          <mxGeometry x="480" y="610" width="10" height="10" as="geometry" />
        </mxCell>
        <mxCell id="4kmjUg7XTupkvUbKVNHZ-191" value="" style="endArrow=none;html=1;rounded=0;" parent="1" edge="1">
          <mxGeometry width="50" height="50" relative="1" as="geometry">
            <mxPoint x="380" y="640" as="sourcePoint" />
            <mxPoint x="380" y="500" as="targetPoint" />
          </mxGeometry>
        </mxCell>
        <mxCell id="4kmjUg7XTupkvUbKVNHZ-198" value="Закрашенные" style="text;html=1;align=center;verticalAlign=middle;resizable=0;points=[];autosize=1;strokeColor=none;fillColor=none;" parent="1" vertex="1">
          <mxGeometry x="255" y="480" width="100" height="30" as="geometry" />
        </mxCell>
        <mxCell id="4kmjUg7XTupkvUbKVNHZ-199" value="Пустые" style="text;html=1;align=center;verticalAlign=middle;resizable=0;points=[];autosize=1;strokeColor=none;fillColor=none;" parent="1" vertex="1">
          <mxGeometry x="425" y="480" width="60" height="30" as="geometry" />
        </mxCell>
      </root>
    </mxGraphModel>
  </diagram>
</mxfile>
